<?xml version="1.0" standalone="no"?>
<!DOCTYPE svg PUBLIC "-//W3C//DTD SVG 20010904//EN"
 "http://www.w3.org/TR/2001/REC-SVG-20010904/DTD/svg10.dtd">
<svg version="1.0" xmlns="http://www.w3.org/2000/svg"
 width="512.000000pt" height="512.000000pt" viewBox="0 0 512.000000 512.000000"
 preserveAspectRatio="xMidYMid meet">
<metadata>
Created by potrace 1.11, written by Peter Selinger 2001-2013
</metadata>
<g transform="translate(0.000000,512.000000) scale(0.100000,-0.100000)"
fill="#000000" stroke="none">
<path d="M660 2555 l0 -855 115 0 115 0 0 383 c0 210 -5 514 -11 676 -5 161
-9 295 -7 296 2 2 127 -303 278 -676 l275 -679 89 2 88 3 277 682 c152 374
277 680 278 680 1 -1 -3 -117 -7 -257 -5 -140 -9 -447 -10 -682 l0 -428 115 0
115 0 0 855 0 856 -151 -3 -151 -3 -275 -688 c-152 -379 -279 -685 -283 -680
-4 4 -130 315 -280 691 l-272 682 -149 0 -149 0 0 -855z"/>
<path d="M2760 2555 l0 -855 115 0 115 0 0 298 c0 163 -5 448 -11 632 -6 184
-9 354 -7 377 3 36 27 -18 222 -500 121 -298 244 -602 274 -674 l54 -133 87 0
87 0 275 678 c175 432 275 668 277 653 2 -13 -1 -175 -7 -360 -6 -185 -11
-479 -11 -653 l0 -318 115 0 115 0 0 855 0 855 -148 0 -148 0 -274 -686 c-151
-377 -277 -687 -280 -689 -3 -2 -129 306 -281 683 l-276 687 -146 3 -147 3 0
-856z"/>
</g>
</svg>
